<svg xmlns="http://www.w3.org/2000/svg" xml:space="preserve" stroke-linecap="round" stroke-linejoin="round" stroke-miterlimit="10" clip-rule="evenodd" viewBox="0 0 512 512">
  <path fill="#1F293A" d="M13.894 255.586c0-133.428 108.165-241.594 241.594-241.594 133.428 0 241.593 108.166 241.593 241.594S388.916 497.179 255.488 497.179c-133.429 0-241.594-108.165-241.594-241.593Z"/>
  <path fill="#04b9f9" fill-rule="evenodd" d="M512 256c0 141.385-114.615 256-256 256S0 397.385 0 256 114.615 0 256 0s256 114.615 256 256ZM256 470.486c118.458 0 214.486-96.028 214.486-214.486 0-118.458-96.028-214.487-214.486-214.487-118.458 0-214.487 96.029-214.487 214.487S137.542 470.486 256 470.486Zm0 13.838c126.1 0 228.324-102.224 228.324-228.324C484.324 129.9 382.1 27.676 256 27.676 129.9 27.676 27.676 129.9 27.676 256 27.676 382.1 129.9 484.324 256 484.324Zm-91.725-323.167c.773-4.94 1.249-7.984-.018-8.178-2.921-1.293-39.716 25.962-39.716 46.03-.03 16.885 16.258 46.923 30.462 73.116 8.86 16.339 16.908 31.182 19.678 40.402 3.868 12.802-1.127 27.177-4.373 36.517-1.984 5.709-3.314 9.536-1.566 9.973 4.216 2.41 44.299-33.98 45.864-49.513 1.234-15.111-16.573-47.962-31.468-75.441-9.443-17.421-17.715-32.683-19.223-39.896-2.739-13.187-.835-25.367.36-33.01Zm91.817-26.126c.983-6.299 1.589-10.185-.023-10.434-3.69-1.643-50.641 33.092-50.641 58.703-.023 21.54 20.758 59.865 38.877 93.281 11.294 20.829 21.554 39.751 25.097 51.512 4.926 16.316-1.458 34.656-5.6 46.555-2.526 7.258-4.219 12.12-2.001 12.663 5.389 3.1 56.495-43.28 58.524-63.096 1.561-19.267-21.108-61.084-40.094-96.11-12.071-22.266-22.653-41.788-24.577-51.027-3.504-16.769-1.082-32.298.438-42.047Zm94.786 26.235c.776-5.005 1.254-8.092-.051-8.287-3.038-1.132-39.668 26.028-39.668 46.041-.037 16.902 16.29 46.998 30.514 73.219 8.841 16.296 16.869 31.095 19.652 40.299 3.851 12.798-1.146 27.169-4.394 36.509-1.987 5.713-3.319 9.544-1.57 9.981 4.228 2.41 44.348-33.98 45.875-49.513 1.235-15.111-16.572-47.962-31.467-75.441-9.443-17.422-17.715-32.683-19.223-39.896-2.733-13.132-.853-25.262.332-32.912Z"/>
</svg>