<svg width="555" height="90" viewBox="0 0 555 90" fill="none" xmlns="http://www.w3.org/2000/svg">
<path d="M304.339 8.8926C306.297 8.8926 307.993 9.57117 309.427 10.9283C310.861 12.2855 311.788 13.964 312.207 15.964L321.23 58.714H323.013C324.482 51.7497 325.986 44.6426 327.525 37.3926C329.063 30.1069 330.602 22.964 332.141 15.964C332.456 14.6069 332.928 13.3747 333.557 12.2676C334.117 11.339 334.886 10.4997 335.865 9.74974C336.879 8.96402 338.191 8.57117 339.8 8.57117C342.073 8.57117 343.856 9.32117 345.15 10.8212C346.479 12.2855 347.143 13.8926 347.143 15.6426C347.143 16.6069 347.074 17.3569 346.934 17.8926C346.899 18.0712 346.864 18.2497 346.829 18.4283C346.794 18.5712 346.759 18.714 346.724 18.8569L332.351 77.1426C331.826 78.3926 331.127 79.464 330.252 80.3569C329.518 81.1783 328.556 81.9283 327.367 82.6069C326.213 83.2497 324.762 83.5712 323.013 83.5712H321.23C319.481 83.5712 318.047 83.2497 316.928 82.6069C315.809 81.9283 314.918 81.1783 314.253 80.3569C313.484 79.4283 312.907 78.3569 312.522 77.1426L305.178 45.7497H303.395C302.835 48.2855 302.258 50.8569 301.663 53.464C301.069 56.0712 300.457 58.7319 299.828 61.4462C299.163 64.1605 298.534 66.8212 297.939 69.4283C297.345 72.0355 296.75 74.6069 296.156 77.1426C295.666 78.464 295.054 79.5355 294.32 80.3569C293.62 81.1783 292.711 81.9283 291.592 82.6069C290.508 83.2497 289.091 83.5712 287.343 83.5712H285.559C283.811 83.5712 282.324 83.2497 281.1 82.6069C279.911 81.9283 278.932 81.1783 278.163 80.3569C277.254 79.4283 276.537 78.3569 276.012 77.1426L261.849 18.8569C261.814 18.714 261.779 18.5712 261.744 18.4283C261.709 18.2497 261.674 18.0712 261.639 17.8926C261.499 17.3569 261.429 16.6069 261.429 15.6426C261.429 13.8926 262.076 12.2855 263.37 10.8212C264.699 9.32117 266.5 8.57117 268.773 8.57117C270.382 8.57117 271.676 8.96402 272.655 9.74974C273.669 10.4997 274.456 11.339 275.015 12.2676C275.645 13.3747 276.117 14.6069 276.432 15.964L285.559 58.714H287.343C288.007 55.4283 288.724 51.964 289.494 48.3212C290.298 44.6783 291.085 41.0176 291.854 37.339C292.658 33.6247 293.445 29.964 294.215 26.3569C294.984 22.7497 295.736 19.2855 296.47 15.964C296.96 13.9283 297.904 12.2497 299.303 10.9283C300.702 9.57117 302.38 8.8926 304.339 8.8926Z" fill="#04B9F9"/>
<path d="M482.349 8.89214C484.314 8.89214 486.017 9.56974 487.456 10.9249C488.895 12.2802 489.825 13.9563 490.246 15.9535L499.301 58.6425H501.091C502.565 51.6882 504.074 44.5911 505.618 37.3515C507.162 30.0762 508.707 22.9435 510.251 15.9535C510.567 14.5983 511.041 13.3679 511.672 12.2623C512.234 11.3351 513.006 10.497 513.989 9.74806C515.007 8.96346 516.323 8.57117 517.937 8.57117C520.218 8.57117 522.008 9.3201 523.307 10.818C524.641 12.2802 525.308 13.885 525.308 15.6325C525.308 16.5954 525.237 17.3443 525.097 17.8793C525.062 18.0576 525.027 18.2359 524.992 18.4143C524.957 18.5569 524.921 18.6996 524.886 18.8422L510.462 77.0448C509.935 78.293 509.233 79.3629 508.356 80.2545C507.619 81.0747 506.654 81.8237 505.46 82.5013C504.302 83.1432 502.846 83.4642 501.091 83.4642H499.301C497.546 83.4642 496.107 83.1432 494.984 82.5013C493.861 81.8237 492.966 81.0747 492.299 80.2545C491.527 79.3272 490.948 78.2573 490.562 77.0448L483.191 45.6967H481.401C480.84 48.2288 480.261 50.7966 479.664 53.4C479.067 56.0034 478.453 58.6603 477.821 61.3708C477.155 64.0812 476.523 66.7381 475.926 69.3415C475.33 71.9449 474.733 74.5127 474.136 77.0448C473.645 78.3643 473.031 79.4342 472.294 80.2545C471.592 81.0747 470.679 81.8237 469.556 82.5013C468.468 83.1432 467.047 83.4642 465.292 83.4642H463.502C461.747 83.4642 460.256 83.1432 459.027 82.5013C457.834 81.8237 456.851 81.0747 456.079 80.2545C455.166 79.3272 454.447 78.2573 453.921 77.0448L439.706 18.8422C439.671 18.6996 439.636 18.5569 439.601 18.4143C439.566 18.2359 439.531 18.0576 439.496 17.8793C439.355 17.3443 439.285 16.5954 439.285 15.6325C439.285 13.885 439.934 12.2802 441.233 10.818C442.567 9.3201 444.374 8.57117 446.655 8.57117C448.27 8.57117 449.569 8.96346 450.551 9.74806C451.569 10.497 452.359 11.3351 452.92 12.2623C453.552 13.3679 454.026 14.5983 454.342 15.9535L463.502 58.6425H465.292C465.959 55.3615 466.678 51.9021 467.45 48.2645C468.258 44.6268 469.047 40.9713 469.819 37.298C470.627 33.589 471.416 29.9335 472.188 26.3315C472.961 22.7295 473.715 19.2702 474.452 15.9535C474.944 13.9207 475.891 12.2445 477.295 10.9249C478.699 9.56974 480.384 8.89214 482.349 8.89214Z" fill="#04B9F9"/>
<path d="M554.999 20.661V33.8208L552.367 50.9392C552.367 53.3643 551.999 55.4685 551.262 57.2516C550.56 59.0348 548.928 59.9264 546.366 59.9264C543.804 59.9264 542.154 59.0348 541.417 57.2516C540.715 55.4685 540.364 53.3643 540.364 50.9392L537.626 33.6068V20.5541C537.626 17.3087 538.223 14.5269 539.416 12.2088C540.645 9.85505 542.961 8.67816 546.366 8.67816C549.805 8.67816 552.104 9.87288 553.262 12.2623C554.42 14.6518 554.999 17.4513 554.999 20.661ZM554.999 74.691C554.999 77.7224 554.245 79.9692 552.736 81.4314C551.227 82.8579 549.103 83.5712 546.366 83.5712C540.54 83.5712 537.626 80.6111 537.626 74.691C537.626 71.624 538.381 69.395 539.89 68.0041C541.399 66.6133 543.558 65.9178 546.366 65.9178C549.279 65.9178 551.437 66.6133 552.841 68.0041C554.28 69.395 554.999 71.624 554.999 74.691Z" fill="#04B9F9"/>
<path d="M24.6722 81.4283C19.7377 81.4283 15.1609 80.4997 10.9416 78.6426C6.72227 76.714 3.07508 74.1783 0 71.0354L5.36352 64.8212C7.86649 67.464 10.7985 69.6069 14.1597 71.2497C17.5923 72.8212 21.1323 73.6069 24.7794 73.6069C29.4278 73.6069 33.0393 72.5712 35.6137 70.4997C38.1882 68.3569 39.4755 65.5712 39.4755 62.1426C39.4755 59.714 38.9391 57.7854 37.8664 56.3569C36.8652 54.9283 35.4707 53.714 33.6829 52.714C31.9666 51.714 29.9999 50.714 27.783 49.714L17.6996 45.3212C15.4827 44.3926 13.2658 43.1783 11.0488 41.6783C8.90344 40.1783 7.07984 38.2497 5.57806 35.8926C4.14779 33.5355 3.43265 30.6426 3.43265 27.214C3.43265 23.6426 4.36233 20.464 6.22168 17.6783C8.15254 14.8212 10.7985 12.6069 14.1597 11.0355C17.5208 9.3926 21.311 8.57117 25.5303 8.57117C29.7496 8.57117 33.6471 9.3926 37.2228 11.0355C40.7985 12.6069 43.8378 14.6783 46.3408 17.2497L41.5136 23.0354C39.3682 20.964 36.9725 19.3569 34.3265 18.214C31.752 16.9997 28.82 16.3926 25.5303 16.3926C21.5971 16.3926 18.4147 17.3212 15.9833 19.1783C13.6233 21.0355 12.4434 23.5355 12.4434 26.6783C12.4434 28.8926 13.0155 30.7497 14.1597 32.2497C15.3754 33.6783 16.8772 34.8569 18.665 35.7854C20.4529 36.714 22.2765 37.5712 24.1358 38.3569L34.112 42.6426C36.8295 43.7854 39.2609 45.1783 41.4063 46.8212C43.6233 48.3926 45.3753 50.3569 46.6626 52.714C47.9498 54.9997 48.5935 57.8926 48.5935 61.3926C48.5935 65.1069 47.628 68.4997 45.6972 71.5712C43.7663 74.5712 41.013 76.964 37.4373 78.7497C33.8617 80.5355 29.6066 81.4283 24.6722 81.4283Z" fill="white"/>
<path d="M71.0951 81.4283C65.517 81.4283 61.6195 79.8212 59.4026 76.6069C57.2572 73.3926 56.1845 69.214 56.1845 64.0712V35.2497H48.461V28.6069L56.6136 28.0712L57.6863 13.4997H65.0879V28.0712H79.1404V35.2497H65.0879V64.1783C65.0879 67.3926 65.66 69.8926 66.8043 71.6783C68.02 73.3926 70.1296 74.2497 73.1332 74.2497C74.0629 74.2497 75.0641 74.1069 76.1368 73.8212C77.2095 73.464 78.1749 73.1426 79.0331 72.8569L80.7494 79.4997C79.3191 79.9997 77.7458 80.4283 76.0295 80.7854C74.3847 81.214 72.7399 81.4283 71.0951 81.4283Z" fill="white"/>
<path d="M106.303 81.4283C101.655 81.4283 97.4355 80.3569 93.6453 78.214C89.8551 75.9997 86.8515 72.8569 84.6346 68.7854C82.4177 64.714 81.3092 59.8569 81.3092 54.214C81.3092 48.4997 82.4177 43.6069 84.6346 39.5355C86.923 35.464 89.8551 32.3212 93.4308 30.1069C97.0064 27.8926 100.761 26.7855 104.694 26.7855C111.345 26.7855 116.458 28.9997 120.034 33.4283C123.681 37.8569 125.505 43.7854 125.505 51.214C125.505 52.1426 125.469 53.0712 125.397 53.9997C125.397 54.8569 125.326 55.6069 125.183 56.2497H89.9981C90.3557 61.7497 92.072 66.1426 95.1471 69.4283C98.2937 72.714 102.37 74.3569 107.376 74.3569C109.879 74.3569 112.167 73.9997 114.241 73.2854C116.387 72.4997 118.425 71.4997 120.356 70.2854L123.466 76.0712C121.25 77.4997 118.711 78.7497 115.85 79.8212C113.061 80.8926 109.879 81.4283 106.303 81.4283ZM89.8908 49.9283H117.781C117.781 44.6426 116.637 40.6426 114.348 37.9283C112.132 35.1426 108.985 33.7497 104.909 33.7497C101.261 33.7497 97.9719 35.1783 95.0398 38.0355C92.1793 40.8212 90.463 44.7854 89.8908 49.9283Z" fill="white"/>
<path d="M155.229 81.4283C150.58 81.4283 146.361 80.3569 142.571 78.214C138.78 75.9997 135.777 72.8569 133.56 68.7854C131.343 64.714 130.235 59.8569 130.235 54.214C130.235 48.4997 131.343 43.6069 133.56 39.5355C135.848 35.464 138.78 32.3212 142.356 30.1069C145.932 27.8926 149.686 26.7855 153.619 26.7855C160.27 26.7855 165.383 28.9997 168.959 33.4283C172.606 37.8569 174.43 43.7854 174.43 51.214C174.43 52.1426 174.394 53.0712 174.323 53.9997C174.323 54.8569 174.251 55.6069 174.108 56.2497H138.923C139.281 61.7497 140.997 66.1426 144.072 69.4283C147.219 72.714 151.295 74.3569 156.301 74.3569C158.804 74.3569 161.093 73.9997 163.167 73.2854C165.312 72.4997 167.35 71.4997 169.281 70.2854L172.392 76.0712C170.175 77.4997 167.636 78.7497 164.776 79.8212C161.987 80.8926 158.804 81.4283 155.229 81.4283ZM138.816 49.9283H166.706C166.706 44.6426 165.562 40.6426 163.274 37.9283C161.057 35.1426 157.91 33.7497 153.834 33.7497C150.187 33.7497 146.897 35.1783 143.965 38.0355C141.105 40.8212 139.388 44.7854 138.816 49.9283Z" fill="white"/>
<path d="M183.022 80.1426V28.0712H190.316L191.067 35.5712H191.389C193.677 33.0712 196.18 30.9997 198.898 29.3569C201.615 27.6426 204.511 26.7855 207.586 26.7855C211.591 26.7855 214.702 27.6783 216.919 29.464C219.207 31.1783 220.888 33.6069 221.961 36.7497C224.678 33.8212 227.432 31.4283 230.221 29.5712C233.01 27.714 235.977 26.7855 239.124 26.7855C244.487 26.7855 248.456 28.5355 251.031 32.0354C253.677 35.464 255 40.4997 255 47.1426V80.1426H246.204V48.3212C246.204 43.464 245.417 39.9283 243.844 37.714C242.271 35.4997 239.839 34.3926 236.549 34.3926C232.688 34.3926 228.325 37.0712 223.462 42.4283V80.1426H214.666V48.3212C214.666 43.464 213.88 39.9283 212.306 37.714C210.733 35.4997 208.266 34.3926 204.905 34.3926C201.043 34.3926 196.681 37.0712 191.818 42.4283V80.1426H183.022Z" fill="white"/>
<path fill-rule="evenodd" clip-rule="evenodd" d="M437.141 45C437.141 69.8528 416.994 90 392.141 90C367.288 90 347.141 69.8528 347.141 45C347.141 20.1472 367.288 0 392.141 0C416.994 0 437.141 20.1472 437.141 45ZM392.141 82.7027C412.964 82.7027 429.844 65.8226 429.844 45C429.844 24.1774 412.964 7.2973 392.141 7.2973C371.318 7.2973 354.438 24.1774 354.438 45C354.438 65.8226 371.318 82.7027 392.141 82.7027ZM392.141 85.1351C414.307 85.1351 432.276 67.166 432.276 45C432.276 22.834 414.307 4.86486 392.141 4.86486C369.975 4.86486 352.006 22.834 352.006 45C352.006 67.166 369.975 85.1351 392.141 85.1351ZM376.018 28.3285C376.153 27.46 376.237 26.9249 376.014 26.8909C375.501 26.6636 369.033 31.4544 369.033 34.982C369.028 37.9501 371.891 43.2303 374.388 47.8345C375.945 50.7066 377.36 53.3157 377.847 54.9364C378.527 57.1867 377.649 59.7136 377.078 61.3554C376.729 62.3589 376.496 63.0317 376.803 63.1084C377.544 63.532 384.59 57.1354 384.865 54.4049C385.082 51.7488 381.952 45.9742 379.333 41.1439C377.673 38.0815 376.219 35.3988 375.954 34.1309C375.473 31.813 375.808 29.6719 376.018 28.3285ZM392.157 23.736C392.33 22.6287 392.437 21.9456 392.153 21.9018C391.505 21.6129 383.252 27.7188 383.252 32.2208C383.248 36.007 386.9 42.7438 390.085 48.6177C392.071 52.2791 393.874 55.6053 394.497 57.6726C395.363 60.5406 394.241 63.7645 393.513 65.8561C393.068 67.132 392.771 67.9865 393.161 68.0821C394.108 68.627 403.092 60.4743 403.448 56.9909C403.723 53.6042 399.738 46.2535 396.4 40.0966C394.279 36.1826 392.418 32.751 392.08 31.127C391.464 28.1793 391.89 25.4496 392.157 23.736ZM408.819 28.3475C408.955 27.4678 409.039 26.9251 408.81 26.8909C408.276 26.6919 401.837 31.4661 401.837 34.9839C401.83 37.955 404.7 43.2454 407.201 47.8545C408.755 50.7191 410.166 53.3205 410.655 54.9383C411.332 57.188 410.454 59.7141 409.883 61.3559C409.534 62.3602 409.3 63.0336 409.607 63.1103C410.35 63.5339 417.402 57.1373 417.671 54.4069C417.888 51.7507 414.758 45.9761 412.14 41.1458C410.48 38.0834 409.026 35.4007 408.761 34.1328C408.28 31.8246 408.611 29.6922 408.819 28.3475Z" fill="#04B9F9"/>
</svg>
